<?xml version="1.0" encoding="UTF-8" standalone="no"?>
<!DOCTYPE svg PUBLIC "-//W3C//DTD SVG 1.1//EN" "http://www.w3.org/Graphics/SVG/1.1/DTD/svg11.dtd">
<svg width="100%" height="100%" viewBox="0 0 273 305" version="1.1" xmlns="http://www.w3.org/2000/svg" xmlns:xlink="http://www.w3.org/1999/xlink" xml:space="preserve" xmlns:serif="http://www.serif.com/" style="fill-rule:evenodd;clip-rule:evenodd;stroke-linejoin:round;stroke-miterlimit:2;">
    <g id="SvgjsG4520">
        <path d="M3.899,50.689L136.471,0L269.043,50.689L136.471,7.798L3.899,50.689ZM3.899,242.529L136.471,304.916L269.043,238.63L136.471,297.117L3.899,242.529Z" style="fill:white;"/>
    </g>
    <g id="SvgjsG4521" transform="matrix(2.23687,0,0,2.23687,49.3316,46.6935)">
        <g>
            <path d="M65.772,10.502C44.788,11.428 37.491,25.63 36.381,28.965C36.381,28.965 43.049,40.086 41.961,42.92C42.616,41.214 43.215,39.763 43.792,38.509C43.651,38.031 43.442,37.274 43.232,36.341C42.865,34.712 42.498,32.548 42.497,30.386C42.497,29.365 42.58,28.343 42.786,27.378C42.896,26.866 43.039,26.37 43.226,25.898C42.73,25.452 42.658,24.691 43.075,24.157C43.51,23.599 44.317,23.499 44.876,23.935C45.434,24.371 45.534,25.178 45.097,25.736C44.79,26.13 44.298,26.295 43.839,26.205C43.679,26.62 43.551,27.062 43.453,27.521C43.259,28.428 43.179,29.403 43.179,30.388C43.179,32.407 43.516,34.462 43.863,36.042C43.991,36.627 44.122,37.147 44.237,37.573C46.109,33.761 47.846,31.886 50.691,29.737L50.678,29.725L50.911,29.476L50.922,29.466C50.929,29.458 50.938,29.448 50.952,29.432C50.979,29.402 51.02,29.358 51.071,29.3C51.176,29.183 51.327,29.009 51.516,28.785C51.894,28.338 52.419,27.692 53.004,26.897C53.975,25.578 55.113,23.849 56.018,21.954C55.601,21.615 55.428,21.037 55.627,20.507C55.878,19.844 56.618,19.51 57.28,19.759C57.944,20.009 58.279,20.749 58.028,21.412C57.813,21.987 57.228,22.315 56.643,22.23C55.71,24.189 54.546,25.955 53.554,27.303C53.031,28.014 52.556,28.606 52.185,29.05L52.185,29.051C51.155,31.102 49.93,32.952 48.781,35.227C49.228,35.179 49.779,35.105 50.392,34.993C52.035,34.69 54.141,34.101 55.97,32.982C56.839,32.449 57.647,31.799 58.318,31.004C58.015,30.622 57.943,30.081 58.178,29.618C58.502,28.986 59.274,28.736 59.905,29.06C60.536,29.382 60.786,30.155 60.464,30.786C60.164,31.371 59.476,31.629 58.874,31.404C58.14,32.284 57.261,32.992 56.326,33.564C55.035,34.353 53.636,34.885 52.346,35.243C50.736,35.69 49.292,35.872 48.428,35.945L48.428,35.946C46.778,39.404 45.348,43.904 44.974,51.38C45.192,47.061 61.534,40.395 61.534,40.395C67.242,21.778 65.772,10.502 65.772,10.502Z" style="fill:url(#_Linear1);fill-rule:nonzero;"/>
            <path d="M14.757,15.446C-3.618,39.391 8.676,63.061 22.743,66.111C22.743,66.111 33.406,66.674 35.44,68.371C30.145,63.954 26.744,59.193 24.561,54.799C24.178,54.837 23.803,54.855 23.436,54.855C20.914,54.855 18.75,54.003 17.037,52.946C15.886,52.236 14.935,51.43 14.209,50.72C13.677,51.006 13.001,50.882 12.608,50.396C12.162,49.846 12.247,49.037 12.797,48.592C13.348,48.146 14.156,48.231 14.602,48.783C14.95,49.214 14.974,49.801 14.705,50.249C15.401,50.929 16.307,51.695 17.396,52.365C19.031,53.376 21.07,54.174 23.436,54.174C23.7,54.174 23.969,54.163 24.242,54.143C22.789,51.074 21.925,48.207 21.414,45.786C20.958,45.655 20.216,45.418 19.341,45.046C17.886,44.424 16.055,43.426 14.557,41.896C13.841,41.164 13.203,40.311 12.726,39.32C12.091,39.392 11.486,38.978 11.335,38.34C11.173,37.65 11.6,36.959 12.289,36.797C12.979,36.634 13.671,37.06 13.833,37.75C13.954,38.26 13.752,38.77 13.36,39.067C13.79,39.945 14.358,40.708 15.001,41.375C15.919,42.325 16.989,43.07 18.017,43.64C19.295,44.352 20.507,44.793 21.261,45.028C21.164,42.697 20.943,40.885 20.695,39.765C20.659,39.605 20.628,39.437 20.604,39.252C20.547,38.826 20.522,38.315 20.522,37.547C20.522,36.014 20.623,33.453 20.807,28.524C20.27,28.353 19.89,27.842 19.912,27.253C19.938,26.546 20.532,25.993 21.241,26.018C21.948,26.045 22.501,26.639 22.476,27.348C22.454,27.938 22.037,28.42 21.488,28.549C21.305,33.478 21.205,36.043 21.205,37.547C21.205,38.299 21.23,38.783 21.282,39.162C21.319,39.443 21.37,39.671 21.438,39.921C21.438,39.924 21.44,39.926 21.44,39.928C21.712,40.804 22.086,42.835 25.24,48.328C25.255,48.312 25.27,48.298 25.285,48.283C25.659,47.905 26.166,47.313 26.687,46.461C27.616,44.946 28.59,42.612 28.918,39.209C28.402,39.03 28.04,38.532 28.057,37.958C28.078,37.25 28.671,36.694 29.379,36.715C30.087,36.736 30.644,37.328 30.623,38.036C30.603,38.641 30.169,39.136 29.602,39.253C29.264,42.768 28.253,45.214 27.269,46.819C26.625,47.869 25.996,48.557 25.577,48.952C26.959,51.493 28.673,54.27 30.706,56.886C31.074,56.508 31.562,55.928 32.063,55.112C32.992,53.596 33.965,51.263 34.294,47.859C33.777,47.681 33.416,47.182 33.433,46.608C33.453,45.901 34.046,45.344 34.754,45.365C35.462,45.386 36.019,45.978 35.997,46.685C35.979,47.29 35.544,47.786 34.976,47.904C34.639,51.418 33.628,53.865 32.645,55.467C32.087,56.376 31.54,57.014 31.132,57.426C33.278,60.107 35.765,62.582 38.573,64.409C39.797,60.478 40.058,56.716 40.058,56.716C42.865,25.099 14.757,15.446 14.757,15.446Z" style="fill:url(#_Linear2);fill-rule:nonzero;"/>
            <path d="M44.675,57.39C44.675,57.39 43.235,61.152 42.449,65.312C45.666,64.108 48.886,62.329 51.785,60.489L51.705,60.508C51.7,60.486 51.581,59.979 51.581,59.136C51.581,58.338 51.689,57.236 52.105,55.97C52.423,55.01 52.918,53.955 53.68,52.867C53.313,52.383 53.335,51.691 53.76,51.228C54.238,50.706 55.05,50.671 55.573,51.15C56.094,51.628 56.129,52.44 55.651,52.963C55.278,53.37 54.702,53.48 54.22,53.283C53.511,54.305 53.051,55.289 52.755,56.183C52.364,57.369 52.264,58.397 52.264,59.135C52.264,59.59 52.3,59.934 52.332,60.138C55.253,58.251 59.636,54.906 59.636,54.906C60.371,54.3 60.387,53.922 61.733,52.671C62.855,51.627 64.399,50.387 66.291,49.349C66.174,48.766 66.476,48.162 67.042,47.919C67.693,47.638 68.448,47.939 68.728,48.588C69.008,49.24 68.71,49.994 68.059,50.274C67.542,50.496 66.958,50.352 66.601,49.958C64.815,50.941 63.342,52.113 62.26,53.114C61.981,53.372 61.725,53.618 61.499,53.847C60.394,55.096 58.495,57.263 55.705,59.962C56.029,60.035 56.479,60.101 57.03,60.101C57.809,60.101 58.79,59.972 59.925,59.54C60.779,59.214 61.722,58.719 62.728,57.974C62.516,57.489 62.619,56.904 63.029,56.522C63.547,56.04 64.359,56.068 64.843,56.586C65.325,57.104 65.297,57.916 64.779,58.4C64.324,58.823 63.644,58.853 63.157,58.504C62.096,59.294 61.09,59.827 60.167,60.178C58.953,60.638 57.885,60.783 57.031,60.783C56.139,60.783 55.479,60.627 55.128,60.515C52.675,62.849 49.583,65.543 45.79,68.367C46.342,68.339 46.903,68.287 47.466,68.205C70.088,67.428 72.599,45.716 72.599,45.716C56.266,42.634 49.553,47.584 44.675,57.39Z" style="fill:url(#_Linear3);fill-rule:nonzero;"/>
        </g>
    </g>
    <g id="SvgjsG4522" transform="matrix(0.881239,0,0,0.881239,-1.15453,206.96)">
        <path d="M15.597,23.613L6.145,23.613L6.145,31.193L1.31,31.193L1.31,9.826L16.408,9.826L16.408,14.255L6.145,14.255L6.145,19.371L15.597,19.371L15.597,23.613ZM29.596,14.255L26.04,14.255L26.04,19.964L29.44,19.964C31.53,19.964 32.809,18.778 32.809,17.125C32.809,15.472 31.749,14.255 29.596,14.255ZM26.04,23.925L26.04,31.193L21.205,31.193L21.205,9.826L30.314,9.826C34.868,9.826 37.675,12.758 37.675,16.938C37.675,20.276 35.461,23.052 31.842,23.769L38.642,31.193L32.341,31.193L26.04,23.925ZM52.205,31.568C46.216,31.568 42.941,28.012 42.941,22.709L42.941,9.826L47.776,9.826L47.776,22.054C47.776,25.298 49.367,27.076 52.174,27.076C54.95,27.076 56.51,25.298 56.51,22.054L56.51,9.826L61.345,9.826L61.345,22.709C61.345,28.012 58.101,31.568 52.205,31.568ZM71.352,31.193L66.517,31.193L66.517,9.826L71.352,9.826L71.352,31.193ZM86.973,31.193L82.138,31.193L82.138,14.255L75.775,14.255L75.775,9.826L93.337,9.826L93.337,14.255L86.973,14.255L86.973,31.193ZM114.38,31.599C108.984,31.599 106.02,28.916 105.739,24.518L110.574,24.518C110.668,26.14 111.604,27.762 114.505,27.762C116.938,27.762 118.186,26.795 118.186,25.454C118.186,23.801 116.096,23.364 113.663,22.834C110.262,22.023 106.114,21.024 106.114,15.94C106.114,12.197 109.015,9.42 114.13,9.42C119.34,9.42 122.21,12.259 122.521,16.439L117.655,16.439C117.562,14.723 116.626,13.351 114.006,13.351C112.072,13.351 110.793,14.131 110.793,15.534C110.793,17.344 112.914,17.843 115.347,18.404C118.841,19.184 123.021,20.057 123.021,24.861C123.021,28.76 119.964,31.599 114.38,31.599ZM138.455,31.63C132.216,31.63 127.132,26.858 127.132,20.525C127.132,14.162 132.216,9.389 138.455,9.389C144.85,9.389 149.778,14.162 149.778,20.494C149.778,26.858 144.85,31.63 138.455,31.63ZM138.455,27.138C142.074,27.138 144.85,24.268 144.85,20.494C144.85,16.782 142.074,13.881 138.455,13.881C134.837,13.881 132.06,16.782 132.06,20.525C132.06,24.268 134.837,27.138 138.455,27.138ZM168.862,23.613L159.411,23.613L159.411,31.193L154.576,31.193L154.576,9.826L169.673,9.826L169.673,14.255L159.411,14.255L159.411,19.371L168.862,19.371L168.862,23.613ZM184.827,31.193L179.992,31.193L179.992,14.255L173.629,14.255L173.629,9.826L191.191,9.826L191.191,14.255L184.827,14.255L184.827,31.193ZM212.989,31.193L209.245,17.999L205.565,31.193L199.825,31.193L194.616,9.826L199.7,9.826L202.976,25.173L207.249,9.826L211.523,9.826L215.765,25.329L219.165,9.826L223.969,9.826L218.759,31.193L212.989,31.193ZM240.245,23.239L237.469,14.879L234.693,23.239L240.245,23.239ZM242.897,31.193L241.68,27.513L233.289,27.513L232.073,31.193L227.113,31.193L234.662,9.826L240.589,9.826L248.106,31.193L242.897,31.193ZM260.671,14.255L257.115,14.255L257.115,19.964L260.515,19.964C262.605,19.964 263.884,18.778 263.884,17.125C263.884,15.472 262.823,14.255 260.671,14.255ZM257.115,23.925L257.115,31.193L252.28,31.193L252.28,9.826L261.388,9.826C265.943,9.826 268.75,12.758 268.75,16.938C268.75,20.276 266.535,23.052 262.917,23.769L269.717,31.193L263.416,31.193L257.115,23.925ZM274.14,31.193L274.14,9.826L289.768,9.826L289.768,14.193L278.975,14.193L278.975,18.217L288.957,18.217L288.957,22.459L278.975,22.459L278.975,26.826L289.799,26.826L289.799,31.193L274.14,31.193ZM302.395,31.599C296.999,31.599 294.035,28.916 293.755,24.518L298.59,24.518C298.683,26.14 299.619,27.762 302.52,27.762C304.953,27.762 306.201,26.795 306.201,25.454C306.201,23.801 304.111,23.364 301.678,22.834C298.278,22.023 294.129,21.024 294.129,15.94C294.129,12.197 297.03,9.42 302.146,9.42C307.355,9.42 310.225,12.259 310.537,16.439L305.671,16.439C305.577,14.723 304.641,13.351 302.021,13.351C300.087,13.351 298.808,14.131 298.808,15.534C298.808,17.344 300.929,17.843 303.362,18.404C306.856,19.184 311.036,20.057 311.036,24.861C311.036,28.76 307.979,31.599 302.395,31.599Z" style="fill:white;fill-rule:nonzero;"/>
    </g>
    <defs>
        <linearGradient id="_Linear1" x1="0" y1="0" x2="1" y2="0" gradientUnits="userSpaceOnUse" gradientTransform="matrix(29.5611,0,0,29.5611,36.3809,10.502)"><stop offset="0" style="stop-color:rgb(0,255,143);stop-opacity:1"/><stop offset="1" style="stop-color:rgb(0,161,255);stop-opacity:1"/></linearGradient>
        <linearGradient id="_Linear2" x1="0" y1="0" x2="1" y2="0" gradientUnits="userSpaceOnUse" gradientTransform="matrix(34.7672,0,0,34.7672,5.48776,15.4462)"><stop offset="0" style="stop-color:rgb(0,255,143);stop-opacity:1"/><stop offset="1" style="stop-color:rgb(0,161,255);stop-opacity:1"/></linearGradient>
        <linearGradient id="_Linear3" x1="0" y1="0" x2="1" y2="0" gradientUnits="userSpaceOnUse" gradientTransform="matrix(30.15,0,0,30.15,42.4488,44.8051)"><stop offset="0" style="stop-color:rgb(0,255,143);stop-opacity:1"/><stop offset="1" style="stop-color:rgb(0,161,255);stop-opacity:1"/></linearGradient>
    </defs>
</svg>
